<svg preserveAspectRatio="none" overflow="visible" style="display: block;" width="30" height="30" viewBox="0 0 30 30" fill="none" xmlns="http://www.w3.org/2000/svg">
<g id="wordpress:caution-filled">
<path id="Vector" d="M15 5C12.3478 5 9.8043 6.05357 7.92893 7.92893C6.05357 9.8043 5 12.3478 5 15C5 17.6522 6.05357 20.1957 7.92893 22.0711C9.8043 23.9464 12.3478 25 15 25C17.6522 25 20.1957 23.9464 22.0711 22.0711C23.9464 20.1957 25 17.6522 25 15C25 12.3478 23.9464 9.8043 22.0711 7.92893C20.1957 6.05357 17.6522 5 15 5ZM15.9375 10V16.25H14.0625V10H15.9375ZM15.9375 18.125V20H14.0625V18.125H15.9375Z" fill="#FF0004"/>
</g>
</svg>
